<?xml version="1.0" encoding="UTF-8"?>
<svg width="140px" height="73px" viewBox="0 0 140 73" version="1.1" xmlns="http://www.w3.org/2000/svg" xmlns:xlink="http://www.w3.org/1999/xlink">
    <title>标注数据集</title>
    <defs>
        <filter x="-24.2%" y="-44.4%" width="148.5%" height="188.9%" filterUnits="objectBoundingBox" id="filter-1">
            <feOffset dx="0" dy="0" in="SourceAlpha" result="shadowOffsetOuter1"></feOffset>
            <feGaussianBlur stdDeviation="2" in="shadowOffsetOuter1" result="shadowBlurOuter1"></feGaussianBlur>
            <feColorMatrix values="0 0 0 0 0.104890114   0 0 0 0 0.150829946   0 0 0 0 0.330804797  0 0 0 0.0998885148 0" type="matrix" in="shadowBlurOuter1" result="shadowMatrixOuter1"></feColorMatrix>
            <feMerge>
                <feMergeNode in="shadowMatrixOuter1"></feMergeNode>
                <feMergeNode in="SourceGraphic"></feMergeNode>
            </feMerge>
        </filter>
        <rect id="path-2" x="0" y="0" width="45" height="30" rx="2"></rect>
        <filter x="-15.6%" y="-33.3%" width="148.9%" height="173.3%" filterUnits="objectBoundingBox" id="filter-3">
            <feOffset dx="4" dy="1" in="SourceAlpha" result="shadowOffsetOuter1"></feOffset>
            <feGaussianBlur stdDeviation="3" in="shadowOffsetOuter1" result="shadowBlurOuter1"></feGaussianBlur>
            <feComposite in="shadowBlurOuter1" in2="SourceAlpha" operator="out" result="shadowBlurOuter1"></feComposite>
            <feColorMatrix values="0 0 0 0 0.103182954   0 0 0 0 0.242371171   0 0 0 0 0.467360344  0 0 0 0.108555507 0" type="matrix" in="shadowBlurOuter1"></feColorMatrix>
        </filter>
    </defs>
    <g id="1.1-在线标注入口优化-0818" stroke="none" stroke-width="1" fill="none" fill-rule="evenodd">
        <g id="数据标注" transform="translate(-509.000000, -766.000000)">
            <g id="页面备份" transform="translate(0.000000, 590.000000)">
                <g id="流程引导备份" transform="translate(196.000000, 112.000000)">
                    <g id="使用流程" transform="translate(24.000000, 64.000000)">
                        <g id="编组-16" transform="translate(263.000000, 0.000000)">
                            <g id="标注数据集" transform="translate(26.000000, 0.000000)">
                                <rect id="矩形" x="0" y="0" width="140" height="72"></rect>
                                <g id="编组-49" transform="translate(8.000000, 6.000000)">
                                    <g id="编组-48">
                                        <rect id="矩形" fill="#E6F0FF" x="20" y="0" width="80" height="60" rx="1"></rect>
                                        <path d="M21,0 L99,0 C99.5522847,-1.01453063e-16 100,0.44771525 100,1 L100,5 L100,5 L20,5 L20,1 C20,0.44771525 20.4477153,1.01453063e-16 21,0 Z" id="矩形备份-23" fill="#2468F2"></path>
                                        <g id="编组-44" transform="translate(28.000000, 12.000000)" fill="#A7C8FC">
                                            <rect id="矩形" x="0" y="0" width="17" height="3" rx="1"></rect>
                                            <g id="编组-45" transform="translate(0.000000, 5.000000)">
                                                <rect id="矩形备份-4" x="0" y="0" width="30.9056604" height="8" rx="1"></rect>
                                                <rect id="矩形备份-11" x="0" y="9.5" width="30.9056604" height="8" rx="1"></rect>
                                                <rect id="矩形备份-18" x="0" y="19" width="30.9056604" height="8" rx="1"></rect>
                                                <rect id="矩形备份-26" x="32.4056604" y="0" width="30.9056604" height="8" rx="1"></rect>
                                                <rect id="矩形备份-25" x="32.4056604" y="9.5" width="30.9056604" height="8" rx="1"></rect>
                                                <rect id="矩形备份-24" x="32.4056604" y="19" width="30.9056604" height="8" rx="1"></rect>
                                                <rect id="矩形备份-30" x="0" y="28.5" width="30.9056604" height="8" rx="1"></rect>
                                                <rect id="矩形备份-28" x="32.4056604" y="28.5" width="30.9056604" height="8" rx="1"></rect>
                                            </g>
                                        </g>
                                        <g id="编组-47" filter="url(#filter-1)" transform="translate(0.000000, 20.146418)">
                                            <path d="M1,0 L32,0 C32.5522847,-1.01453063e-16 33,0.44771525 33,1 L33,17 C33,17.5522847 32.5522847,18 32,18 L1,18 C0.44771525,18 6.76353751e-17,17.5522847 0,17 L0,1 C-6.76353751e-17,0.44771525 0.44771525,1.01453063e-16 1,0 Z" id="矩形备份-5" fill="#FFFFFF"></path>
                                            <g id="编组-46" transform="translate(5.032309, 4.853582)">
                                                <rect id="矩形" fill="#2468F2" x="0" y="0" width="14" height="2.5" rx="0.5"></rect>
                                                <rect id="矩形备份-6" fill="#A8CAFF" x="0" y="4" width="24" height="5" rx="1"></rect>
                                            </g>
                                        </g>
                                    </g>
                                    <g id="编组-51" transform="translate(73.000000, 30.000000)">
                                        <g id="矩形">
                                            <use fill="black" fill-opacity="1" filter="url(#filter-3)" xlink:href="#path-2"></use>
                                            <use fill-opacity="0.159118226" fill="#ADD3FF" fill-rule="evenodd" xlink:href="#path-2"></use>
                                        </g>
                                        <g id="编组-50" transform="translate(14.000000, 6.000000)" fill-rule="nonzero">
                                            <path d="M1.09874512,8.65954839 L13.6587489,8.66659001 C13.9498874,8.6668315 14.229142,8.55154993 14.4348199,8.34621463 L17.6780611,5.11428669 C18.1067248,4.68711829 18.1079011,3.99355511 17.6780598,3.56521317 L14.4277527,0.326243997 C14.2216644,0.120874574 13.9437396,0.00586769778 13.651683,0.00586769778 L1.11640983,0 C0.511099014,0 0.01884236,0.488192456 0.0176647125,1.09256533 L4.54747351e-13,7.56463598 C0.0011776475,8.16900885 0.492256654,8.65837485 1.09874512,8.65954839 Z M11.8475251,3.17442252 C12.4905206,2.53366992 13.5339183,2.5336719 14.1792691,3.17677158 C14.8234423,3.81869772 14.8222646,4.8596273 14.1769158,5.50038189 C13.5327426,6.14230802 12.4881673,6.1411325 11.8451698,5.49803481 C11.2021762,4.85493315 11.2021762,3.8151771 11.8475251,3.17442252 Z" id="形状" fill="#2468F2"></path>
                                            <path d="M1.09874512,18.992958 L13.6587489,18.9999996 C13.9498874,19.0002411 14.229142,18.8849595 14.4348199,18.6796242 L17.6780611,15.4476963 C18.1067248,15.0205279 18.1079011,14.3269647 17.6780598,13.8986228 L14.4277527,10.6596536 C14.2216644,10.4542842 13.9437396,10.3392773 13.651683,10.3392773 L1.11640983,10.3334096 C0.511099014,10.3334096 0.01884236,10.8216021 0.0176647125,11.4259749 L0,17.8980456 C0.0011776475,18.5024185 0.492256654,18.9917845 1.09874512,18.992958 Z M11.8475251,13.5078321 C12.4905206,12.8670795 13.5339183,12.8670815 14.1792691,13.5101812 C14.8234423,14.1521073 14.8222646,15.1930369 14.1769158,15.8337915 C13.5327426,16.4757176 12.4881673,16.4745421 11.8451698,15.8314444 C11.2021762,15.1883428 11.2021762,14.1485867 11.8475251,13.5078321 Z" id="形状" fill="#A7C8FC"></path>
                                        </g>
                                    </g>
                                </g>
                            </g>
                        </g>
                    </g>
                </g>
            </g>
        </g>
    </g>
</svg>